<?xml version="1.0" encoding="utf-8"?>
<!-- Generator: Adobe Illustrator 19.2.0, SVG Export Plug-In . SVG Version: 6.00 Build 0)  -->
<svg version="1.1" id="Layer_2" xmlns="http://www.w3.org/2000/svg" xmlns:xlink="http://www.w3.org/1999/xlink" x="0px" y="0px"
	 viewBox="0 0 320 60" style="enable-background:new 0 0 320 60;" xml:space="preserve">
<style type="text/css">
	.st0{fill:#13B493;}
	.st1{fill:#5B5B5B;}
</style>
<g>
	<path class="st0" d="M53.3,52.3c-0.1,2.7-1.2,4.5-3.3,5.7c-1.5,0.9-3.2,1-4.9,0.5c-0.6-0.2-1.1-0.5-1.6-0.8c-0.3-0.2-0.3-0.3,0-0.6
		c2.4-2.4,4.9-4.9,7.3-7.3c0.3-0.3,0.5-0.5,0.8-0.8c0.3-0.3,0.5-0.3,0.7,0.1c0.2,0.4,0.5,0.8,0.6,1.3C53.1,51.1,53.2,51.8,53.3,52.3
		z"/>
	<path class="st0" d="M6.2,26.7c0.1-1.5,0.3-2.9,0.8-4.4c0.7-2.1,1.9-4,3.4-5.6c1.1-1.1,2.3-2.1,3.7-2.9c1.1-0.6,2.2-1.1,3.3-1.4
		c1.4-0.4,2.9-0.6,4.4-0.6c0.9,0,1.6,0.7,1.8,1.7c0.1,0.7-0.4,1.6-1.1,1.9c-0.3,0.1-0.7,0.2-1.1,0.2c-1.6,0-3.1,0.4-4.5,1
		c-2.1,1-3.9,2.5-5.1,4.6c-1.1,1.8-1.6,3.8-1.7,5.9c0,1.1-0.9,2-1.9,2c-1.1,0-1.9-0.9-2-1.9C6.2,27.1,6.2,26.9,6.2,26.7z"/>
	<path class="st0" d="M28.2,28.8c0-2.5,0-5,0-7.4c0-0.3,0.1-0.5,0.5-0.5c1,0,1.9,0,2.9,0c0.4,0,0.6,0.2,0.6,0.6c0,4.9,0,9.8,0,14.6
		c0,0.6-0.1,0.7-0.7,0.7c-0.9,0-1.7,0-2.6,0c-0.6,0-0.6-0.1-0.6-0.6C28.2,33.7,28.2,31.2,28.2,28.8C28.2,28.8,28.2,28.8,28.2,28.8z"
		/>
	<path class="st0" d="M20.9,30.6c0-1.9,0-3.7,0-5.6c0-0.4,0.1-0.5,0.5-0.5c0.9,0,1.8,0,2.7,0c0.6,0,0.6,0,0.6,0.6
		c0,3.6,0,7.2,0,10.8c0,0.7-0.1,0.8-0.8,0.8c-0.9,0-1.7,0-2.6,0c-0.5,0-0.6-0.1-0.6-0.6C20.9,34.3,20.9,32.5,20.9,30.6z"/>
	<path class="st0" d="M13.5,32.5c0-1.2,0-2.5,0-3.7c0-0.4,0.1-0.5,0.5-0.5c1,0,1.9,0,2.9,0c0.3,0,0.5,0.1,0.5,0.5c0,2.4,0,4.9,0,7.3
		c0,0.6,0,0.6-0.6,0.6c-0.9,0-1.8,0-2.7,0c-0.4,0-0.5-0.1-0.5-0.5C13.5,34.9,13.5,33.7,13.5,32.5z"/>
</g>
<path class="st1" d="M50.7,47.6c-0.8-0.8-1.6-1.5-2.4-2.3c-0.8-0.8-1.1-1.1-1.2-1.2c-0.8-0.8-1.8-1.4-3-1.6
	c-0.5-0.1-2.3-0.1-3.7,0.7c0,0,0,0,0,0c-0.7-0.7-1.3-1.4-2-2.1c-0.1-0.1-0.1-0.3,0-0.4c0.6-0.9,1.4-1.8,1.9-2.8
	c0.6-1.1,1.2-2.3,1.7-3.6c0.3-0.9,0.5-1.8,0.7-2.7c0.4-1.7,0.6-3.3,0.5-5c-0.1-1.2-0.3-2.5-0.5-3.7c-0.2-0.9-0.4-1.9-0.7-2.8
	c-0.3-0.9-0.7-1.7-1.1-2.5c-0.6-1.1-1.2-2.2-2-3.2c-1.3-1.8-2.9-3.4-4.8-4.6c-0.9-0.6-1.7-1.1-2.6-1.6c-0.8-0.4-1.6-0.7-2.4-1
	c-0.8-0.3-1.7-0.6-2.5-0.8C25.8,6.1,25,6,24.2,5.9C22,5.4,19.9,5.7,17.8,6c-1.6,0.3-3.1,0.7-4.5,1.4C11.9,8,10.6,8.7,9.4,9.5
	c-1.9,1.3-3.6,2.9-5,4.8c-0.7,1-1.4,2.1-2,3.2c-0.6,1.1-1,2.2-1.4,3.3c-0.4,1.2-0.6,2.5-0.8,3.7c-0.3,1.8-0.3,3.6,0,5.4
	c0.2,1.1,0.4,2.3,0.7,3.4c0.3,1,0.6,2,1,2.9c0.7,1.3,1.5,2.7,2.3,3.9c1.3,1.9,3,3.5,4.9,4.8c1,0.7,2.2,1.3,3.3,1.9
	c0.9,0.4,1.8,0.8,2.7,1.1c1.1,0.3,2.3,0.5,3.4,0.7c2,0.4,4,0.3,5.9,0c0.9-0.1,1.9-0.3,2.8-0.6c0.7-0.2,1.4-0.5,2.2-0.7
	c0.8-0.3,1.6-0.6,2.3-1c1.2-0.7,2.3-1.5,3.4-2.3c0.2-0.2,0.5-0.2,0.7,0.1c0.6,0.6,1.2,1.2,1.8,1.9c-0.1,0.2-0.2,0.3-0.2,0.3
	c-0.2,0.5-0.4,1-0.6,1.5c-0.5,1.8,0,3.5,1.2,4.8c0.4,0.5,0.7,0.7,0.8,0.9c0.1,0.1,0.3,0.3,0.4,0.4c1.9,1.9,0.7,0.7,2.5,2.6
	c0.3,0.3,0.5,0.3,0.7,0c0.7-0.7,1.3-1.3,2-2c0.4-0.4,0.4-0.4,0-0.8c-0.7-0.7-1.1-1.1-1.2-1.2c-0.2-0.2-0.5-0.5-1.1-1.1
	c-0.5-0.5-0.6-0.6-0.6-0.6c-0.1-0.1-0.2-0.2-0.6-0.6c-0.6-0.6-0.6-1.6-0.1-2.2c0.4-0.3,0.7-0.7,1.1-1.1c0.7-0.7,1.5-0.6,2.1,0
	c0.1,0.1,0.4,0.4,1.1,1.1c0.8,0.8,1.6,1.7,2.5,2.5c0.2,0.2,0.4,0.3,0.7,0c0.7-0.7,1.4-1.4,2.1-2.1C51,48,51,47.9,50.7,47.6z
	 M21.2,44.9C12,44.7,3.7,37,4,26.5c0.3-9,7.9-17,17.7-16.8c9.7-0.1,17.6,8,17.5,17.8C39.1,36.9,31.3,45.1,21.2,44.9z M44.3,46.8
	C44.3,46.8,44.3,46.8,44.3,46.8C46.8,49.3,44.7,47.1,44.3,46.8z"/>
<g>
	<path d="M63.2,30.7H66v3.8h-2.7v7.2h-3.7v-7.2h-2.7v-3.8h2.7V24c0-3.4,1-6,3-7.8c1.5-1.3,3.3-2,5.2-2v1.9l0,1.9
		c-0.9,0-1.8,0.3-2.5,0.9c-1.3,1-2,2.7-2,5.2V30.7z"/>
	<path d="M71.3,29.9c-0.4,0.5-1,0.7-1.6,0.7c-0.6,0-1.2-0.2-1.7-0.7c-0.5-0.5-0.7-1-0.7-1.7c0-0.6,0.2-1.2,0.7-1.7
		c0.5-0.5,1-0.7,1.7-0.7c0.6,0,1.2,0.2,1.6,0.7c0.5,0.5,0.7,1,0.7,1.7C72,28.9,71.8,29.4,71.3,29.9z M71.5,41.6h-3.7v-9.4h3.7V41.6z
		"/>
	<path d="M81.1,25.9c2.1,0,4,0.8,5.5,2.3c1.5,1.5,2.3,3.4,2.3,5.5v7.9h-3.7v-7.9c0-1.1-0.4-2.1-1.2-2.9c-0.8-0.8-1.8-1.2-2.9-1.2
		c-1.1,0-2.1,0.4-2.9,1.2c-0.8,0.8-1.2,1.8-1.2,2.9v7.9h-3.7v-7.9c0-2.2,0.8-4,2.3-5.5C77.1,26.7,79,25.9,81.1,25.9z"/>
	<path d="M106,33.8c0,2.2-0.8,4-2.3,5.6c-1.5,1.5-3.4,2.3-5.5,2.3c-2.2,0-4-0.8-5.6-2.3c-1.5-1.5-2.3-3.4-2.3-5.6
		c0-2.2,0.8-4,2.3-5.6c1.5-1.6,3.4-2.3,5.6-2.3c1.5,0,2.9,0.4,4.2,1.2V14.2h3.7V33.8z M98.1,29.6c-1.1,0-2.1,0.4-2.9,1.2
		c-0.8,0.8-1.2,1.8-1.2,2.9c0,1.1,0.4,2.1,1.2,2.9c0.8,0.8,1.8,1.2,2.9,1.2c1.1,0,2.1-0.4,2.9-1.2c0.8-0.8,1.2-1.8,1.2-2.9
		c0-1.1-0.4-2.1-1.2-2.9C100.2,30,99.3,29.6,98.1,29.6z"/>
</g>
<g>
	<path class="st1" d="M116.1,41.6c-2.1,0-4-0.8-5.5-2.3c-1.5-1.5-2.3-3.3-2.3-5.5v-8h3.7v8c0,1.1,0.4,2.1,1.2,2.9
		c0.8,0.8,1.8,1.2,2.9,1.2s2.1-0.4,2.9-1.2c0.8-0.8,1.2-1.7,1.2-2.9v-8h3.7v8c0,2.1-0.8,4-2.3,5.5C120.1,40.9,118.2,41.6,116.1,41.6
		L116.1,41.6z"/>
	<path class="st1" d="M133,25.9c2.1,0,4,0.8,5.5,2.3c1.5,1.5,2.3,3.4,2.3,5.5v7.9h-3.7v-7.9c0-1.1-0.4-2.1-1.2-2.9
		c-0.8-0.8-1.8-1.2-2.9-1.2c-1.1,0-2.1,0.4-2.9,1.2c-0.8,0.8-1.2,1.8-1.2,2.9v7.9h-3.7v-7.9c0-2.2,0.8-4,2.3-5.5
		C129,26.7,130.8,25.9,133,25.9z"/>
	<path class="st1" d="M153.6,35.8l3,2.3c-0.3,0.5-0.7,0.9-1.1,1.3c-1.5,1.5-3.4,2.3-5.6,2.3c-2.2,0-4-0.8-5.5-2.3
		c-1.6-1.5-2.3-3.4-2.3-5.6c0-2.2,0.8-4,2.3-5.5c1.5-1.6,3.4-2.3,5.5-2.3c2.2,0,4,0.8,5.6,2.3c0.4,0.4,0.8,0.8,1.1,1.3l-3,2.3
		c-0.2-0.3-0.4-0.6-0.7-0.9c-0.8-0.8-1.8-1.2-2.9-1.2c-1.1,0-2.1,0.4-2.9,1.2c-0.8,0.8-1.2,1.8-1.2,2.9c0,1.1,0.4,2.1,1.2,2.9
		c0.8,0.8,1.8,1.2,2.9,1.2c1.1,0,2.1-0.4,2.9-1.2C153.2,36.4,153.5,36.1,153.6,35.8z"/>
	<path class="st1" d="M161.7,41.6H158V14.2h3.7V41.6z"/>
	<path class="st1" d="M175.1,40.5c-1.2,0.8-2.6,1.2-4.2,1.2c-2.2,0-4-0.8-5.5-2.3c-1.6-1.5-2.3-3.4-2.3-5.6c0-2.2,0.8-4,2.3-5.5
		c1.5-1.6,3.4-2.3,5.5-2.3c2.2,0,4,0.8,5.6,2.3c1.5,1.5,2.3,3.4,2.3,5.5v7.9h-3.7V40.5z M168,30.8c-0.8,0.8-1.2,1.8-1.2,2.9
		c0,1.1,0.4,2.1,1.2,2.9c0.8,0.8,1.8,1.2,2.9,1.2c1.1,0,2.1-0.4,2.9-1.2c0.8-0.8,1.2-1.8,1.2-2.9c0-1.1-0.4-2.1-1.2-2.9
		c-0.8-0.8-1.8-1.2-2.9-1.2C169.7,29.6,168.8,30,168,30.8z"/>
	<path class="st1" d="M184.1,29.9c-0.4,0.5-1,0.7-1.6,0.7c-0.6,0-1.2-0.2-1.7-0.7c-0.5-0.5-0.7-1-0.7-1.7c0-0.6,0.2-1.2,0.7-1.7
		c0.5-0.5,1-0.7,1.7-0.7c0.6,0,1.2,0.2,1.6,0.7c0.5,0.5,0.7,1,0.7,1.7C184.7,28.9,184.5,29.4,184.1,29.9z M184.3,41.6h-3.7v-9.4h3.7
		V41.6z"/>
	<path class="st1" d="M201.9,25.9c1.8,0,3.3,0.6,4.6,1.9c1.3,1.3,1.9,2.8,1.9,4.6v9.2h-3.7v-9.2c0-0.8-0.3-1.5-0.8-2
		c-0.5-0.5-1.2-0.8-2-0.8s-1.4,0.3-2,0.8c-0.6,0.6-0.8,1.2-0.8,2v9.2h-3.7v-9.2c0-0.8-0.3-1.5-0.8-2c-0.6-0.5-1.2-0.8-2-0.8
		c-0.8,0-1.4,0.3-2,0.8c-0.5,0.6-0.8,1.2-0.8,2v9.2h-3.7v-9.2c0-1.8,0.6-3.3,1.9-4.6c1.3-1.3,2.8-1.9,4.6-1.9c1.8,0,3.4,0.7,4.7,2
		C198.5,26.6,200.1,25.9,201.9,25.9z"/>
	<path class="st1" d="M217.7,41.6c-1,0-2-0.2-2.9-0.5c-1-0.4-1.8-0.9-2.5-1.6c-0.8-0.7-1.4-1.6-1.8-2.5c-0.4-0.9-0.7-1.9-0.7-2.9
		v-0.3c0-1,0.2-2,0.5-2.9c0.4-1,0.9-1.8,1.6-2.5c0.7-0.8,1.6-1.4,2.6-1.8c0.9-0.4,1.9-0.7,3-0.7h0.2c1,0,2,0.2,2.9,0.6
		c0.9,0.4,1.8,0.9,2.5,1.6c0.9,0.9,1.7,2.3,2.5,4.2L215,36.9c0.3,0.3,0.7,0.5,1.1,0.7c0.5,0.2,1,0.3,1.5,0.3h0.2
		c0.5,0,1-0.1,1.5-0.4c0.5-0.2,0.9-0.5,1.3-0.9c0.3-0.4,0.6-0.8,0.8-1.3l3.5,1.3c-0.4,0.9-0.9,1.8-1.6,2.5c-0.7,0.8-1.6,1.4-2.5,1.8
		c-0.9,0.4-1.9,0.7-2.9,0.7H217.7z M217.5,29.6c-0.5,0-1,0.1-1.5,0.4c-0.5,0.2-1,0.5-1.4,0.9c-0.3,0.4-0.6,0.8-0.8,1.3
		c-0.2,0.4-0.3,0.8-0.3,1.3l6.7-2.9c-0.3-0.3-0.7-0.5-1.1-0.7C218.6,29.7,218.1,29.6,217.5,29.6L217.5,29.6z"/>
	<path class="st1" d="M242.7,33.8c0,2.2-0.8,4-2.3,5.6c-1.5,1.5-3.4,2.3-5.5,2.3c-2.2,0-4-0.8-5.6-2.3s-2.3-3.4-2.3-5.6
		c0-2.2,0.8-4,2.3-5.6c1.5-1.6,3.4-2.3,5.6-2.3c1.5,0,2.9,0.4,4.2,1.2V14.2h3.7V33.8z M234.8,29.6c-1.1,0-2.1,0.4-2.9,1.2
		c-0.8,0.8-1.2,1.8-1.2,2.9c0,1.1,0.4,2.1,1.2,2.9c0.8,0.8,1.8,1.2,2.9,1.2c1.1,0,2.1-0.4,2.9-1.2c0.8-0.8,1.2-1.8,1.2-2.9
		c0-1.1-0.4-2.1-1.2-2.9C236.9,30,235.9,29.6,234.8,29.6z"/>
</g>
<g>
	<path class="st0" d="M256.5,40.5c-1.2,0.8-2.6,1.2-4.2,1.2c-2.2,0-4-0.8-5.5-2.3c-1.6-1.5-2.3-3.4-2.3-5.6c0-2.2,0.8-4,2.3-5.5
		c1.5-1.6,3.4-2.3,5.5-2.3c2.2,0,4,0.8,5.6,2.3c1.5,1.5,2.3,3.4,2.3,5.5v7.9h-3.7V40.5z M249.4,30.8c-0.8,0.8-1.2,1.8-1.2,2.9
		c0,1.1,0.4,2.1,1.2,2.9c0.8,0.8,1.8,1.2,2.9,1.2c1.1,0,2.1-0.4,2.9-1.2c0.8-0.8,1.2-1.8,1.2-2.9c0-1.1-0.4-2.1-1.2-2.9
		c-0.8-0.8-1.8-1.2-2.9-1.2C251.2,29.6,250.2,30,249.4,30.8z"/>
	<path class="st0" d="M263.3,40.4c-1.1-0.9-1.6-2.1-1.6-3.5h3.7c0,0.5,0.2,0.8,0.7,1c0.2,0.1,0.5,0.2,0.7,0.2c0.5,0,0.8-0.1,1.1-0.2
		s0.4-0.4,0.5-0.7c0-0.3-0.1-0.6-0.2-0.7c-0.3-0.3-0.8-0.4-1.6-0.5c-1.6-0.2-2.9-0.8-3.8-1.7c-0.8-0.9-1.2-1.9-1.2-3
		c0-1.4,0.4-2.5,1.3-3.6c1-1.1,2.2-1.7,3.8-1.7c1.6,0,2.9,0.5,3.9,1.5c1,1,1.5,2.3,1.5,3.9h-3.7c0-1.1-0.6-1.7-1.7-1.7
		c-1,0-1.5,0.5-1.5,1.6c0,0.6,0.6,1,1.8,1.2c1.9,0.2,3.3,0.9,4.2,2c0.6,0.8,0.9,1.7,0.9,2.8c0,1.3-0.5,2.4-1.5,3.2s-2.3,1.3-3.7,1.3
		C265.5,41.6,264.3,41.2,263.3,40.4z"/>
	<path class="st0" d="M275.2,40.4c-1.1-0.9-1.6-2.1-1.6-3.5h3.7c0,0.5,0.2,0.8,0.7,1c0.2,0.1,0.5,0.2,0.7,0.2c0.5,0,0.8-0.1,1.1-0.2
		s0.4-0.4,0.5-0.7c0-0.3-0.1-0.6-0.2-0.7c-0.3-0.3-0.8-0.4-1.6-0.5c-1.6-0.2-2.9-0.8-3.8-1.7c-0.8-0.9-1.2-1.9-1.2-3
		c0-1.4,0.4-2.5,1.3-3.6c1-1.1,2.2-1.7,3.8-1.7c1.6,0,2.9,0.5,3.9,1.5c1,1,1.5,2.3,1.5,3.9h-3.7c0-1.1-0.6-1.7-1.7-1.7
		c-1,0-1.5,0.5-1.5,1.6c0,0.6,0.6,1,1.8,1.2c1.9,0.2,3.3,0.9,4.2,2c0.6,0.8,0.9,1.7,0.9,2.8c0,1.3-0.5,2.4-1.5,3.2s-2.3,1.3-3.7,1.3
		C277.3,41.6,276.2,41.2,275.2,40.4z"/>
	<path class="st0" d="M293.2,41.6c-1,0-2-0.2-2.9-0.5c-1-0.4-1.8-0.9-2.5-1.6c-0.8-0.7-1.4-1.6-1.8-2.5c-0.4-0.9-0.7-1.9-0.7-2.9
		v-0.3c0-1,0.2-2,0.5-2.9c0.4-1,0.9-1.8,1.6-2.5c0.7-0.8,1.6-1.4,2.6-1.8c0.9-0.4,1.9-0.7,3-0.7h0.2c1,0,2,0.2,2.9,0.6
		c0.9,0.4,1.8,0.9,2.5,1.6c0.9,0.9,1.7,2.3,2.5,4.2l-10.6,4.6c0.3,0.3,0.7,0.5,1.1,0.7c0.5,0.2,1,0.3,1.5,0.3h0.2
		c0.5,0,1-0.1,1.5-0.4c0.5-0.2,0.9-0.5,1.3-0.9c0.3-0.4,0.6-0.8,0.8-1.3l3.5,1.3c-0.4,0.9-0.9,1.8-1.6,2.5c-0.7,0.8-1.6,1.4-2.5,1.8
		c-0.9,0.4-1.9,0.7-2.9,0.7H293.2z M293.1,29.6c-0.5,0-1,0.1-1.5,0.4c-0.5,0.2-1,0.5-1.4,0.9c-0.3,0.4-0.6,0.8-0.8,1.3
		c-0.2,0.4-0.3,0.8-0.3,1.3l6.7-2.9c-0.3-0.3-0.7-0.5-1.1-0.7C294.2,29.7,293.7,29.6,293.1,29.6L293.1,29.6z"/>
	<path class="st0" d="M309.4,23h-3v18.6h-3.5V23h-3v-3.5h3v-5.3h3.5v5.3h3V23z"/>
	<path class="st0" d="M310.1,40.4c-1.1-0.9-1.6-2.1-1.6-3.5h3.7c0,0.5,0.2,0.8,0.7,1c0.2,0.1,0.5,0.2,0.7,0.2c0.5,0,0.8-0.1,1.1-0.2
		s0.4-0.4,0.5-0.7c0-0.3-0.1-0.6-0.2-0.7c-0.3-0.3-0.8-0.4-1.6-0.5c-1.6-0.2-2.9-0.8-3.8-1.7c-0.8-0.9-1.2-1.9-1.2-3
		c0-1.4,0.4-2.5,1.3-3.6c1-1.1,2.2-1.7,3.8-1.7c1.6,0,2.9,0.5,3.9,1.5c1,1,1.5,2.3,1.5,3.9h-3.7c0-1.1-0.6-1.7-1.7-1.7
		c-1,0-1.5,0.5-1.5,1.6c0,0.6,0.6,1,1.8,1.2c1.9,0.2,3.3,0.9,4.2,2c0.6,0.8,0.9,1.7,0.9,2.8c0,1.3-0.5,2.4-1.5,3.2s-2.3,1.3-3.7,1.3
		C312.2,41.6,311.1,41.2,310.1,40.4z"/>
</g>
</svg>
